<svg width="11" height="20" viewBox="0 0 11 20" fill="none" xmlns="http://www.w3.org/2000/svg">
<path d="M10.62 0.989793C10.5039 0.873385 10.366 0.781028 10.2141 0.718012C10.0622 0.654995 9.89942 0.622559 9.735 0.622559C9.57058 0.622559 9.40778 0.654995 9.25592 0.718012C9.10406 0.781028 8.96612 0.873385 8.85 0.989793L0.540003 9.29979C0.447299 9.39231 0.373752 9.5022 0.32357 9.62317C0.273389 9.74414 0.247559 9.87383 0.247559 10.0048C0.247559 10.1358 0.273389 10.2654 0.32357 10.3864C0.373752 10.5074 0.447299 10.6173 0.540003 10.7098L8.85 19.0198C9.34 19.5098 10.13 19.5098 10.62 19.0198C11.11 18.5298 11.11 17.7398 10.62 17.2498L3.38 9.99979L10.63 2.74979C11.11 2.26979 11.11 1.46979 10.62 0.989793Z" fill="#714300"/>
</svg>
