<svg viewBox="0 0 92 92" fill="none" xmlns="http://www.w3.org/2000/svg">
<path d="M46 5.75C56.675 5.75 66.9127 9.99061 74.461 17.539C82.0094 25.0873 86.25 35.325 86.25 46C86.25 56.675 82.0094 66.9127 74.461 74.461C66.9127 82.0094 56.675 86.25 46 86.25C35.325 86.25 25.0873 82.0094 17.539 74.461C9.99061 66.9127 5.75 56.675 5.75 46C5.75 35.325 9.99061 25.0873 17.539 17.539C25.0873 9.99061 35.325 5.75 46 5.75ZM40.986 53.9407L32.0448 44.9937C31.7242 44.6732 31.3437 44.4189 30.9249 44.2455C30.5061 44.072 30.0572 43.9827 29.6039 43.9827C29.1506 43.9827 28.7017 44.072 28.2829 44.2455C27.8641 44.4189 27.4835 44.6732 27.163 44.9937C26.5156 45.6411 26.152 46.5191 26.152 47.4346C26.152 48.3501 26.5156 49.2281 27.163 49.8755L38.548 61.2605C38.8676 61.5826 39.2479 61.8383 39.6668 62.0128C40.0857 62.1873 40.5351 62.2771 40.9889 62.2771C41.4427 62.2771 41.892 62.1873 42.3109 62.0128C42.7299 61.8383 43.1101 61.5826 43.4297 61.2605L67.0047 37.6798C67.3296 37.3605 67.588 36.9802 67.7651 36.5606C67.9422 36.141 68.0344 35.6905 68.0365 35.2351C68.0387 34.7797 67.9506 34.3284 67.7774 33.9072C67.6042 33.486 67.3494 33.1032 67.0275 32.781C66.7057 32.4588 66.3232 32.2035 65.9022 32.0298C65.4812 31.8561 65.03 31.7675 64.5746 31.7691C64.1192 31.7707 63.6686 31.8624 63.2488 32.039C62.829 32.2156 62.4483 32.4736 62.1288 32.798L40.986 53.9407Z" fill="currentColor"/>
</svg>
